<svg xmlns="http://www.w3.org/2000/svg" xmlns:xlink="http://www.w3.org/1999/xlink" width="500" zoomAndPan="magnify" viewBox="0 0 375 132.749998" height="177" preserveAspectRatio="xMidYMid meet" version="1.0"><defs><g/><clipPath id="01d1612bee"><path d="M 258 8 L 374.648438 8 L 374.648438 126 L 258 126 Z M 258 8 " clip-rule="nonzero"/></clipPath></defs><g fill="#ffffff" fill-opacity="1"><g transform="translate(0.352446, 124.005004)"><g><path d="M 8.46875 -103.25 C 7.007812 -103.25 5.753906 -103.769531 4.703125 -104.8125 C 3.660156 -105.863281 3.140625 -107.070312 3.140625 -108.4375 C 3.140625 -109.894531 3.660156 -111.117188 4.703125 -112.109375 C 5.753906 -113.109375 7.007812 -113.609375 8.46875 -113.609375 L 81.75 -113.609375 C 83.21875 -113.609375 84.421875 -113.109375 85.359375 -112.109375 C 86.304688 -111.117188 86.78125 -109.894531 86.78125 -108.4375 C 86.78125 -107.070312 86.304688 -105.863281 85.359375 -104.8125 C 84.421875 -103.769531 83.21875 -103.25 81.75 -103.25 Z M 8.46875 -82.390625 C 7.007812 -82.390625 5.753906 -82.882812 4.703125 -83.875 C 3.660156 -84.863281 3.140625 -86.039062 3.140625 -87.40625 C 3.140625 -88.875 3.660156 -90.128906 4.703125 -91.171875 C 5.753906 -92.210938 7.007812 -92.734375 8.46875 -92.734375 L 34.515625 -92.734375 C 35.984375 -92.734375 37.238281 -92.210938 38.28125 -91.171875 C 39.332031 -90.128906 39.859375 -88.875 39.859375 -87.40625 L 39.859375 -3.765625 C 39.859375 -2.296875 39.332031 -1.039062 38.28125 0 C 37.238281 1.039062 35.984375 1.5625 34.515625 1.5625 C 33.160156 1.5625 31.929688 1.039062 30.828125 0 C 29.734375 -1.039062 29.1875 -2.296875 29.1875 -3.765625 L 29.1875 -82.390625 Z M 81.75 -92.734375 C 83.21875 -92.734375 84.421875 -92.210938 85.359375 -91.171875 C 86.304688 -90.128906 86.78125 -88.875 86.78125 -87.40625 C 86.78125 -86.039062 86.304688 -84.863281 85.359375 -83.875 C 84.421875 -82.882812 83.21875 -82.390625 81.75 -82.390625 L 60.734375 -82.390625 L 60.734375 -3.765625 C 60.734375 -2.296875 60.207031 -1.039062 59.15625 0 C 58.113281 1.039062 56.859375 1.5625 55.390625 1.5625 C 54.035156 1.5625 52.832031 1.039062 51.78125 0 C 50.738281 -1.039062 50.21875 -2.296875 50.21875 -3.765625 L 50.21875 -87.40625 C 50.21875 -88.875 50.738281 -90.128906 51.78125 -91.171875 C 52.832031 -92.210938 54.035156 -92.734375 55.390625 -92.734375 Z M 81.75 -92.734375 "/></g></g></g><g fill="#ffffff" fill-opacity="1"><g transform="translate(78.970682, 124.005004)"><g><path d="M 23.0625 -3.609375 C 23.0625 -2.242188 22.566406 -1.039062 21.578125 0 C 20.585938 1.039062 19.359375 1.5625 17.890625 1.5625 C 16.421875 1.5625 15.160156 1.039062 14.109375 0 C 13.066406 -1.039062 12.546875 -2.242188 12.546875 -3.609375 L 12.546875 -108.59375 C 12.546875 -110.050781 13.066406 -111.273438 14.109375 -112.265625 C 15.160156 -113.265625 16.421875 -113.765625 17.890625 -113.765625 C 19.359375 -113.765625 20.585938 -113.265625 21.578125 -112.265625 C 22.566406 -111.273438 23.0625 -110.050781 23.0625 -108.59375 Z M 44.09375 -3.609375 C 44.09375 -2.242188 43.59375 -1.039062 42.59375 0 C 41.601562 1.039062 40.378906 1.5625 38.921875 1.5625 C 37.453125 1.5625 36.191406 1.039062 35.140625 0 C 34.097656 -1.039062 33.578125 -2.242188 33.578125 -3.609375 L 33.578125 -108.59375 C 33.578125 -110.050781 34.097656 -111.273438 35.140625 -112.265625 C 36.191406 -113.265625 37.453125 -113.765625 38.921875 -113.765625 C 40.378906 -113.765625 41.601562 -113.265625 42.59375 -112.265625 C 43.59375 -111.273438 44.09375 -110.050781 44.09375 -108.59375 Z M 44.09375 -3.609375 "/></g></g></g><g fill="#ff6700" fill-opacity="1"><g transform="translate(123.226507, 124.005004)"><g><path d="M 126.328125 -74.21875 C 126.742188 -72.863281 126.632812 -71.53125 126 -70.21875 C 125.375 -68.914062 124.332031 -68.054688 122.875 -67.640625 C 121.507812 -67.210938 120.144531 -67.335938 118.78125 -68.015625 C 117.425781 -68.703125 116.539062 -69.722656 116.125 -71.078125 C 112.769531 -81.335938 106.703125 -89.65625 97.921875 -96.03125 C 93.835938 -98.96875 89.285156 -101.269531 84.265625 -102.9375 C 79.242188 -104.613281 73.960938 -105.453125 68.421875 -105.453125 C 59.109375 -105.453125 51.101562 -103.671875 44.40625 -100.109375 C 37.707031 -96.554688 32.34375 -91.875 28.3125 -86.0625 C 24.289062 -80.257812 21.625 -73.851562 20.3125 -66.84375 C 19.007812 -59.832031 19.007812 -52.820312 20.3125 -45.8125 C 21.625 -38.8125 24.289062 -32.40625 28.3125 -26.59375 C 32.34375 -20.789062 37.707031 -16.109375 44.40625 -12.546875 C 51.101562 -8.992188 59.109375 -7.21875 68.421875 -7.21875 C 73.960938 -7.21875 79.242188 -8.050781 84.265625 -9.71875 C 89.285156 -11.394531 93.835938 -13.703125 97.921875 -16.640625 C 106.703125 -22.804688 112.769531 -31.117188 116.125 -41.578125 C 116.539062 -43.046875 117.425781 -44.09375 118.78125 -44.71875 C 120.144531 -45.351562 121.507812 -45.457031 122.875 -45.03125 C 124.332031 -44.613281 125.375 -43.75 126 -42.4375 C 126.632812 -41.132812 126.742188 -39.75 126.328125 -38.28125 C 124.335938 -32.21875 121.457031 -26.570312 117.6875 -21.34375 C 113.925781 -16.113281 109.484375 -11.664062 104.359375 -8 C 99.222656 -4.445312 93.648438 -1.625 87.640625 0.46875 C 81.628906 2.5625 75.222656 3.609375 68.421875 3.609375 C 58.484375 3.609375 49.773438 1.9375 42.296875 -1.40625 C 34.816406 -4.757812 28.585938 -9.285156 23.609375 -14.984375 C 18.640625 -20.679688 14.925781 -27.085938 12.46875 -34.203125 C 10.007812 -41.316406 8.78125 -48.664062 8.78125 -56.25 C 8.78125 -63.84375 10.007812 -71.191406 12.46875 -78.296875 C 14.925781 -85.410156 18.640625 -91.816406 23.609375 -97.515625 C 28.585938 -103.222656 34.816406 -107.75 42.296875 -111.09375 C 49.773438 -114.445312 58.484375 -116.125 68.421875 -116.125 C 75.222656 -116.125 81.628906 -115.128906 87.640625 -113.140625 C 93.648438 -111.148438 99.222656 -108.328125 104.359375 -104.671875 C 109.484375 -100.898438 113.925781 -96.425781 117.6875 -91.25 C 121.457031 -86.070312 124.335938 -80.394531 126.328125 -74.21875 Z M 36.09375 -37.34375 C 35.363281 -38.707031 35.179688 -40.066406 35.546875 -41.421875 C 35.910156 -42.785156 36.71875 -43.832031 37.96875 -44.5625 C 39.332031 -45.300781 40.691406 -45.484375 42.046875 -45.109375 C 43.410156 -44.742188 44.457031 -43.882812 45.1875 -42.53125 C 46.445312 -40.539062 47.9375 -38.679688 49.65625 -36.953125 C 51.382812 -35.222656 53.242188 -33.785156 55.234375 -32.640625 C 59.210938 -30.128906 63.609375 -28.875 68.421875 -28.875 C 72.179688 -28.875 75.707031 -29.578125 79 -30.984375 C 82.300781 -32.398438 85.101562 -34.363281 87.40625 -36.875 C 89.914062 -39.28125 91.875 -42.15625 93.28125 -45.5 C 94.695312 -48.851562 95.40625 -52.460938 95.40625 -56.328125 C 95.40625 -60.097656 94.695312 -63.65625 93.28125 -67 C 91.875 -70.351562 89.914062 -73.234375 87.40625 -75.640625 C 85.101562 -78.046875 82.300781 -79.976562 79 -81.4375 C 75.707031 -82.90625 72.179688 -83.640625 68.421875 -83.640625 C 63.609375 -83.640625 59.210938 -82.4375 55.234375 -80.03125 C 51.148438 -77.625 47.800781 -74.328125 45.1875 -70.140625 C 44.457031 -68.785156 43.410156 -67.894531 42.046875 -67.46875 C 40.691406 -67.050781 39.332031 -67.210938 37.96875 -67.953125 C 36.71875 -68.679688 35.910156 -69.75 35.546875 -71.15625 C 35.179688 -72.570312 35.363281 -73.960938 36.09375 -75.328125 C 39.4375 -81.285156 43.988281 -85.9375 49.75 -89.28125 C 55.5 -92.632812 61.722656 -94.3125 68.421875 -94.3125 C 73.648438 -94.3125 78.566406 -93.316406 83.171875 -91.328125 C 87.773438 -89.335938 91.800781 -86.617188 95.25 -83.171875 C 98.59375 -79.710938 101.234375 -75.679688 103.171875 -71.078125 C 105.109375 -66.484375 106.078125 -61.566406 106.078125 -56.328125 C 106.078125 -51.097656 105.109375 -46.179688 103.171875 -41.578125 C 101.234375 -36.984375 98.59375 -32.957031 95.25 -29.5 C 91.800781 -25.945312 87.773438 -23.175781 83.171875 -21.1875 C 78.566406 -19.195312 73.648438 -18.203125 68.421875 -18.203125 C 65.171875 -18.203125 61.953125 -18.644531 58.765625 -19.53125 C 55.578125 -20.425781 52.570312 -21.65625 49.75 -23.21875 C 43.988281 -26.78125 39.4375 -31.488281 36.09375 -37.34375 Z M 36.09375 -37.34375 "/></g></g></g><g clip-path="url(#01d1612bee)"><g fill="#ffffff" fill-opacity="1"><g transform="translate(245.78476, 124.005004)"><g><path d="M 99.328125 -113.296875 C 100.171875 -114.453125 101.320312 -115.160156 102.78125 -115.421875 C 104.25 -115.679688 105.609375 -115.390625 106.859375 -114.546875 C 108.015625 -113.710938 108.722656 -112.5625 108.984375 -111.09375 C 109.242188 -109.632812 108.957031 -108.328125 108.125 -107.171875 L 74.859375 -59.46875 C 74.015625 -58.21875 72.832031 -57.460938 71.3125 -57.203125 C 69.800781 -56.941406 68.46875 -57.28125 67.3125 -58.21875 C 66.789062 -58.632812 66.375 -59.101562 66.0625 -59.625 L 32.796875 -107.171875 C 32.066406 -108.328125 31.804688 -109.632812 32.015625 -111.09375 C 32.222656 -112.5625 32.898438 -113.710938 34.046875 -114.546875 C 35.203125 -115.390625 36.535156 -115.679688 38.046875 -115.421875 C 39.566406 -115.160156 40.742188 -114.453125 41.578125 -113.296875 L 70.296875 -71.71875 Z M 23.21875 -3.765625 C 23.21875 -2.296875 22.695312 -1.039062 21.65625 0 C 20.613281 1.039062 19.359375 1.5625 17.890625 1.5625 C 16.421875 1.5625 15.160156 1.039062 14.109375 0 C 13.066406 -1.039062 12.546875 -2.296875 12.546875 -3.765625 L 12.546875 -110.15625 C 12.546875 -111.625 13.066406 -112.878906 14.109375 -113.921875 C 15.160156 -114.972656 16.421875 -115.5 17.890625 -115.5 C 19.359375 -115.5 20.613281 -114.972656 21.65625 -113.921875 C 22.695312 -112.878906 23.21875 -111.625 23.21875 -110.15625 Z M 128.359375 -3.765625 C 128.359375 -2.296875 127.832031 -1.039062 126.78125 0 C 125.738281 1.039062 124.4375 1.5625 122.875 1.5625 C 121.507812 1.5625 120.300781 1.039062 119.25 0 C 118.207031 -1.039062 117.6875 -2.296875 117.6875 -3.765625 L 117.6875 -110.15625 C 117.6875 -111.625 118.207031 -112.878906 119.25 -113.921875 C 120.300781 -114.972656 121.507812 -115.5 122.875 -115.5 C 124.4375 -115.5 125.738281 -114.972656 126.78125 -113.921875 C 127.832031 -112.878906 128.359375 -111.625 128.359375 -110.15625 Z M 107.015625 -3.765625 C 107.015625 -2.296875 106.488281 -1.039062 105.4375 0 C 104.394531 1.039062 103.144531 1.5625 101.6875 1.5625 C 100.21875 1.5625 98.957031 1.039062 97.90625 0 C 96.863281 -1.039062 96.34375 -2.296875 96.34375 -3.765625 L 96.34375 -53.203125 L 74.859375 -22.28125 C 74.015625 -21.132812 72.832031 -20.425781 71.3125 -20.15625 C 69.800781 -19.894531 68.46875 -20.132812 67.3125 -20.875 C 66.6875 -21.5 66.269531 -21.96875 66.0625 -22.28125 L 44.5625 -53.203125 L 44.5625 -3.765625 C 44.5625 -2.296875 44.035156 -1.039062 42.984375 0 C 41.941406 1.039062 40.640625 1.5625 39.078125 1.5625 C 37.710938 1.5625 36.503906 1.039062 35.453125 0 C 34.410156 -1.039062 33.890625 -2.296875 33.890625 -3.765625 L 33.890625 -70.140625 C 33.890625 -72.023438 34.625 -73.4375 36.09375 -74.375 C 37.238281 -75.21875 38.570312 -75.507812 40.09375 -75.25 C 41.613281 -74.988281 42.789062 -74.28125 43.625 -73.125 L 70.296875 -34.515625 L 97.296875 -72.96875 C 98.335938 -74.539062 99.800781 -75.328125 101.6875 -75.328125 C 103.144531 -75.328125 104.394531 -74.828125 105.4375 -73.828125 C 106.488281 -72.835938 107.015625 -71.609375 107.015625 -70.140625 Z M 107.015625 -3.765625 "/></g></g></g></g></svg>